<svg width="194" height="38" viewBox="0 0 194 38" fill="none" xmlns="http://www.w3.org/2000/svg">
<g clip-path="url(#clip0_3_57)">
<path d="M6.47303 2.35898V23.19H16.463L15.834 28H0.405029V2.35898H6.47303ZM35.2977 28H30.2287L29.9697 25.521C28.5391 27.593 26.5534 28.629 24.0127 28.629C22.2121 28.629 20.8431 28.0863 19.9057 27.001C18.9931 25.9157 18.5367 24.3987 18.5367 22.45V8.35297H24.3827V21.71C24.3827 22.672 24.5307 23.3503 24.8267 23.745C25.1474 24.115 25.6284 24.3 26.2697 24.3C27.5031 24.3 28.5637 23.5353 29.4517 22.006V8.35297H35.2977V28ZM48.4056 7.72398C49.7622 7.72398 50.9832 7.92131 52.0686 8.31598C53.1539 8.71065 54.1776 9.31497 55.1396 10.129L52.6236 13.607C51.3902 12.6697 50.1446 12.201 48.8866 12.201C47.5792 12.201 46.5926 12.682 45.9266 13.644C45.2606 14.606 44.9276 16.16 44.9276 18.306C44.9276 20.378 45.2606 21.8457 45.9266 22.709C46.5926 23.5723 47.5546 24.004 48.8126 24.004C49.4786 24.004 50.0829 23.9053 50.6256 23.708C51.1682 23.486 51.8219 23.1407 52.5866 22.672L55.1396 26.298C53.1909 27.852 50.9832 28.629 48.5166 28.629C46.5186 28.629 44.7919 28.2097 43.3366 27.371C41.8812 26.5077 40.7589 25.3113 39.9696 23.782C39.1802 22.228 38.7856 20.415 38.7856 18.343C38.7856 16.271 39.1802 14.4333 39.9696 12.83C40.7589 11.2267 41.8812 9.98098 43.3366 9.09298C44.7919 8.18031 46.4816 7.72398 48.4056 7.72398ZM72.8533 22.302C72.8533 23.042 72.952 23.5847 73.1493 23.93C73.3713 24.2753 73.7166 24.5343 74.1853 24.707L72.9643 28.518C71.7556 28.4193 70.769 28.1603 70.0043 27.741C69.2396 27.297 68.6476 26.6063 68.2283 25.669C66.9456 27.6423 64.9723 28.629 62.3083 28.629C60.3596 28.629 58.8056 28.0617 57.6463 26.927C56.487 25.7923 55.9073 24.3123 55.9073 22.487C55.9073 20.341 56.6966 18.7007 58.2753 17.566C59.854 16.4313 62.1356 15.864 65.1203 15.864H67.1183V15.013C67.1183 13.8537 66.8716 13.0643 66.3783 12.645C65.885 12.201 65.0216 11.979 63.7883 11.979C63.147 11.979 62.37 12.0777 61.4573 12.275C60.5446 12.4477 59.6073 12.6943 58.6453 13.015L57.3133 9.16698C58.5466 8.69831 59.8046 8.34065 61.0873 8.09398C62.3946 7.84731 63.6033 7.72398 64.7133 7.72398C67.5253 7.72398 69.585 8.30365 70.8923 9.46298C72.1996 10.6223 72.8533 12.3613 72.8533 14.68V22.302ZM64.0103 24.448C65.3423 24.448 66.3783 23.819 67.1183 22.561V19.083H65.6753C64.3433 19.083 63.3443 19.3173 62.6783 19.786C62.037 20.2547 61.7163 20.9823 61.7163 21.969C61.7163 22.7583 61.9136 23.375 62.3083 23.819C62.7276 24.2383 63.295 24.448 64.0103 24.448ZM84.0675 7.72398C85.4735 7.72398 86.7932 7.93364 88.0265 8.35297C89.2598 8.7723 90.3452 9.3643 91.2825 10.129L89.1365 13.422C87.5332 12.4107 85.9175 11.905 84.2895 11.905C83.5248 11.905 82.9328 12.0407 82.5135 12.312C82.1188 12.5587 81.9215 12.9163 81.9215 13.385C81.9215 13.755 82.0078 14.0633 82.1805 14.31C82.3778 14.532 82.7602 14.7663 83.3275 15.013C83.8948 15.2597 84.7705 15.5557 85.9545 15.901C88.0018 16.493 89.5188 17.27 90.5055 18.232C91.5168 19.1693 92.0225 20.4767 92.0225 22.154C92.0225 23.486 91.6402 24.6453 90.8755 25.632C90.1108 26.594 89.0625 27.334 87.7305 27.852C86.3985 28.37 84.9185 28.629 83.2905 28.629C81.6378 28.629 80.0962 28.37 78.6655 27.852C77.2595 27.334 76.0632 26.6187 75.0765 25.706L77.9255 22.524C79.5782 23.8067 81.3172 24.448 83.1425 24.448C84.0305 24.448 84.7212 24.2877 85.2145 23.967C85.7325 23.6463 85.9915 23.19 85.9915 22.598C85.9915 22.1293 85.8928 21.7593 85.6955 21.488C85.4982 21.2167 85.1158 20.97 84.5485 20.748C83.9812 20.5013 83.0808 20.2053 81.8475 19.86C79.8988 19.2927 78.4435 18.5033 77.4815 17.492C76.5195 16.4807 76.0385 15.2227 76.0385 13.718C76.0385 12.5833 76.3592 11.572 77.0005 10.684C77.6665 9.77131 78.6038 9.05598 79.8125 8.53798C81.0458 7.99531 82.4642 7.72398 84.0675 7.72398ZM103.914 17.196H99.9552V28H96.4402V2.50698H103.137C106.319 2.50698 108.724 3.11131 110.352 4.31998C112.005 5.52865 112.831 7.32931 112.831 9.72198C112.831 11.498 112.375 12.941 111.462 14.051C110.55 15.161 109.168 15.9997 107.318 16.567L114.2 28H110.019L103.914 17.196ZM103.507 14.495C105.357 14.495 106.751 14.125 107.688 13.385C108.626 12.6203 109.094 11.3993 109.094 9.72198C109.094 8.14331 108.613 7.00865 107.651 6.31798C106.714 5.60265 105.197 5.24498 103.1 5.24498H99.9552V14.495H103.507ZM125.442 8.05698C128.18 8.05698 130.301 8.96965 131.806 10.795C133.335 12.6203 134.1 15.0993 134.1 18.232C134.1 20.2547 133.754 22.043 133.064 23.597C132.373 25.1263 131.374 26.3227 130.067 27.186C128.759 28.0247 127.205 28.444 125.405 28.444C122.667 28.444 120.533 27.5313 119.004 25.706C117.474 23.8807 116.71 21.4017 116.71 18.269C116.71 16.2463 117.055 14.4703 117.746 12.941C118.436 11.387 119.435 10.1907 120.743 9.35198C122.05 8.48865 123.616 8.05698 125.442 8.05698ZM125.442 10.795C122.062 10.795 120.373 13.2863 120.373 18.269C120.373 23.227 122.05 25.706 125.405 25.706C128.759 25.706 130.437 23.2147 130.437 18.232C130.437 13.274 128.772 10.795 125.442 10.795ZM146.827 8.05698C147.986 8.05698 149.047 8.22965 150.009 8.57498C150.971 8.89565 151.896 9.42598 152.784 10.166L151.156 12.312C150.465 11.8187 149.787 11.461 149.121 11.239C148.48 10.9923 147.764 10.869 146.975 10.869C145.396 10.869 144.163 11.498 143.275 12.756C142.412 14.014 141.98 15.8763 141.98 18.343C141.98 20.8097 142.412 22.635 143.275 23.819C144.138 24.9783 145.372 25.558 146.975 25.558C147.74 25.558 148.443 25.447 149.084 25.225C149.725 24.9783 150.441 24.596 151.23 24.078L152.784 26.298C151.008 27.7287 149.022 28.444 146.827 28.444C144.188 28.444 142.103 27.556 140.574 25.78C139.069 24.004 138.317 21.5497 138.317 18.417C138.317 16.345 138.662 14.532 139.353 12.978C140.044 11.424 141.018 10.2153 142.276 9.35198C143.559 8.48865 145.076 8.05698 146.827 8.05698ZM166.568 8.05698C168.344 8.05698 169.725 8.5873 170.712 9.64797C171.723 10.7087 172.229 12.164 172.229 14.014V28H168.825V14.495C168.825 13.1137 168.554 12.1393 168.011 11.572C167.493 11.0047 166.728 10.721 165.717 10.721C164.706 10.721 163.805 11.017 163.016 11.609C162.227 12.201 161.487 13.0397 160.796 14.125V28H157.392V0.693975L160.796 0.323975V11.202C162.325 9.1053 164.249 8.05698 166.568 8.05698ZM192.207 23.449C192.207 24.2383 192.342 24.8303 192.614 25.225C192.885 25.595 193.292 25.8787 193.835 26.076L193.058 28.444C192.046 28.3207 191.232 28.037 190.616 27.593C189.999 27.149 189.543 26.4583 189.247 25.521C187.939 27.4697 186.003 28.444 183.438 28.444C181.514 28.444 179.997 27.9013 178.887 26.816C177.777 25.7307 177.222 24.3123 177.222 22.561C177.222 20.489 177.962 18.898 179.442 17.788C180.946 16.678 183.068 16.123 185.806 16.123H188.803V14.68C188.803 13.2987 188.47 12.312 187.804 11.72C187.138 11.128 186.114 10.832 184.733 10.832C183.302 10.832 181.551 11.1773 179.479 11.868L178.628 9.38898C181.045 8.50098 183.29 8.05698 185.362 8.05698C187.656 8.05698 189.37 8.62431 190.505 9.75898C191.639 10.869 192.207 12.46 192.207 14.532V23.449ZM184.215 25.891C186.163 25.891 187.693 24.8797 188.803 22.857V18.38H186.25C182.648 18.38 180.848 19.712 180.848 22.376C180.848 23.5353 181.131 24.411 181.699 25.003C182.266 25.595 183.105 25.891 184.215 25.891Z" fill="#F5F5F5"/>
<path fill-rule="evenodd" clip-rule="evenodd" d="M75 35V34H115V35V36V37V38H75V37V36V35Z" fill="url(#paint0_linear_3_57)"/>
</g>
<defs>
<linearGradient id="paint0_linear_3_57" x1="75" y1="36" x2="115" y2="36" gradientUnits="userSpaceOnUse">
<stop stop-color="#29B6F8"/>
<stop offset="1" stop-color="#0A67DD"/>
</linearGradient>
<clipPath id="clip0_3_57">
<rect width="194" height="38" fill="white"/>
</clipPath>
</defs>
</svg>
